<svg xmlns="http://www.w3.org/2000/svg" xmlns:xlink="http://www.w3.org/1999/xlink" width="200" zoomAndPan="magnify" viewBox="0 0 1440 809.999993" height="200" preserveAspectRatio="xMidYMid meet" version="1.0"><defs><g/><clipPath id="81133a10a7"><path d="M 674.507812 380.574219 L 691.496094 380.574219 L 691.496094 395.421875 L 674.507812 395.421875 Z M 674.507812 380.574219 " clip-rule="nonzero"/></clipPath><clipPath id="56485eb6eb"><path d="M 682.988281 395.421875 L 691.472656 380.574219 L 674.507812 380.574219 Z M 682.988281 395.421875 " clip-rule="nonzero"/></clipPath><clipPath id="df20d4c5d6"><path d="M 655.242188 372.824219 L 681.105469 372.824219 L 681.105469 395.421875 L 655.242188 395.421875 Z M 655.242188 372.824219 " clip-rule="nonzero"/></clipPath><clipPath id="37d0483884"><path d="M 668.152344 372.824219 L 681.066406 395.421875 L 655.242188 395.421875 Z M 668.152344 372.824219 " clip-rule="nonzero"/></clipPath></defs><g clip-path="url(#81133a10a7)"><g clip-path="url(#56485eb6eb)"><path fill="#000000" d="M 674.507812 380.574219 L 691.496094 380.574219 L 691.496094 395.421875 L 674.507812 395.421875 Z M 674.507812 380.574219 " fill-opacity="1" fill-rule="nonzero"/></g></g><g clip-path="url(#df20d4c5d6)"><g clip-path="url(#37d0483884)"><path fill="#000000" d="M 655.242188 372.824219 L 681.105469 372.824219 L 681.105469 395.421875 L 655.242188 395.421875 Z M 655.242188 372.824219 " fill-opacity="1" fill-rule="nonzero"/></g></g><g fill="#000000" fill-opacity="1"><g transform="translate(678.886676, 427.676336)"><g><path d="M 3.59375 0 L 3.59375 -29.71875 L 5.046875 -29.71875 L 5.046875 -17.59375 C 5.398438 -18.25 5.910156 -18.835938 6.578125 -19.359375 C 7.242188 -19.890625 8.035156 -20.304688 8.953125 -20.609375 C 9.878906 -20.921875 10.898438 -21.078125 12.015625 -21.078125 C 13.390625 -21.078125 14.617188 -20.832031 15.703125 -20.34375 C 16.796875 -19.863281 17.65625 -19.1875 18.28125 -18.3125 C 18.914062 -17.445312 19.234375 -16.445312 19.234375 -15.3125 L 19.234375 0 L 17.6875 0 L 17.6875 -14.71875 C 17.6875 -16.238281 17.175781 -17.425781 16.15625 -18.28125 C 15.132812 -19.132812 13.742188 -19.5625 11.984375 -19.5625 C 10.765625 -19.5625 9.632812 -19.375 8.59375 -19 C 7.5625 -18.625 6.726562 -18.054688 6.09375 -17.296875 C 5.46875 -16.535156 5.15625 -15.570312 5.15625 -14.40625 L 5.15625 0 Z M 3.59375 0 "/></g></g></g><g fill="#000000" fill-opacity="1"><g transform="translate(701.324442, 427.676336)"><g><path d="M 5.71875 -20.6875 L 5.71875 0 L 4.140625 0 L 4.140625 -20.6875 Z M 5.859375 -28.875 L 5.859375 -26.484375 L 3.953125 -26.484375 L 3.953125 -28.875 Z M 5.859375 -28.875 "/></g></g></g><g fill="#000000" fill-opacity="1"><g transform="translate(711.143461, 427.676336)"><g><path d="M 11.9375 -11.15625 L 11.9375 -9.59375 L 2.546875 -9.5625 L 2.546875 -11.125 Z M 11.9375 -11.15625 "/></g></g></g><g fill="#000000" fill-opacity="1"><g transform="translate(725.622022, 427.676336)"><g><path d="M 12.578125 -19.3125 L 7.84375 -19.3125 L 7.84375 -4.640625 C 7.84375 -3.679688 7.925781 -2.984375 8.09375 -2.546875 C 8.257812 -2.117188 8.570312 -1.847656 9.03125 -1.734375 C 9.488281 -1.617188 10.148438 -1.5625 11.015625 -1.5625 L 12.78125 -1.5625 L 12.78125 -0.203125 C 12.53125 -0.117188 12.171875 -0.0625 11.703125 -0.03125 C 11.242188 -0.0078125 10.765625 0 10.265625 0 C 9.222656 0 8.410156 -0.15625 7.828125 -0.46875 C 7.242188 -0.78125 6.835938 -1.273438 6.609375 -1.953125 C 6.378906 -2.640625 6.265625 -3.535156 6.265625 -4.640625 L 6.265625 -19.3125 L 2.90625 -19.3125 L 2.90625 -20.6875 L 6.265625 -20.6875 L 6.578125 -26.484375 L 7.84375 -26.484375 L 7.84375 -20.6875 L 12.578125 -20.6875 Z M 12.578125 -19.3125 "/></g></g></g><g fill="#000000" fill-opacity="1"><g transform="translate(740.900502, 427.676336)"><g><path d="M 4.125 -9.953125 C 4.125 -8.398438 4.382812 -6.953125 4.90625 -5.609375 C 5.425781 -4.265625 6.238281 -3.179688 7.34375 -2.359375 C 8.445312 -1.535156 9.875 -1.125 11.625 -1.125 C 13.257812 -1.125 14.65625 -1.515625 15.8125 -2.296875 C 16.976562 -3.085938 17.679688 -4.160156 17.921875 -5.515625 L 19.625 -5.515625 C 19.351562 -4.179688 18.816406 -3.070312 18.015625 -2.1875 C 17.210938 -1.3125 16.253906 -0.660156 15.140625 -0.234375 C 14.035156 0.191406 12.863281 0.40625 11.625 0.40625 C 9.8125 0.40625 8.210938 -0.00390625 6.828125 -0.828125 C 5.453125 -1.648438 4.375 -2.847656 3.59375 -4.421875 C 2.8125 -5.992188 2.421875 -7.90625 2.421875 -10.15625 C 2.421875 -12.4375 2.769531 -14.394531 3.46875 -16.03125 C 4.164062 -17.664062 5.1875 -18.914062 6.53125 -19.78125 C 7.875 -20.644531 9.488281 -21.078125 11.375 -21.078125 C 13.164062 -21.078125 14.691406 -20.679688 15.953125 -19.890625 C 17.210938 -19.109375 18.175781 -17.972656 18.84375 -16.484375 C 19.519531 -15.003906 19.859375 -13.203125 19.859375 -11.078125 L 19.859375 -9.953125 Z M 4.15625 -11.484375 L 18.203125 -11.484375 C 18.203125 -13.015625 17.953125 -14.390625 17.453125 -15.609375 C 16.960938 -16.828125 16.210938 -17.789062 15.203125 -18.5 C 14.191406 -19.207031 12.90625 -19.5625 11.34375 -19.5625 C 9.644531 -19.5625 8.265625 -19.15625 7.203125 -18.34375 C 6.148438 -17.539062 5.375 -16.519531 4.875 -15.28125 C 4.382812 -14.039062 4.144531 -12.773438 4.15625 -11.484375 Z M 4.15625 -11.484375 "/></g></g></g><g fill="#000000" fill-opacity="1"><g transform="translate(763.17829, 427.676336)"><g><path d="M 11.234375 -21.078125 C 12.472656 -21.078125 13.644531 -20.859375 14.75 -20.421875 C 15.851562 -19.992188 16.796875 -19.335938 17.578125 -18.453125 C 18.367188 -17.578125 18.894531 -16.46875 19.15625 -15.125 L 17.453125 -15.125 C 17.296875 -16.03125 16.929688 -16.816406 16.359375 -17.484375 C 15.796875 -18.148438 15.070312 -18.660156 14.1875 -19.015625 C 13.3125 -19.378906 12.328125 -19.5625 11.234375 -19.5625 C 9.066406 -19.5625 7.296875 -18.800781 5.921875 -17.28125 C 4.546875 -15.769531 3.859375 -13.4375 3.859375 -10.28125 C 3.859375 -7.53125 4.460938 -5.304688 5.671875 -3.609375 C 6.890625 -1.921875 8.742188 -1.078125 11.234375 -1.078125 C 12.328125 -1.078125 13.3125 -1.253906 14.1875 -1.609375 C 15.070312 -1.972656 15.796875 -2.488281 16.359375 -3.15625 C 16.929688 -3.820312 17.296875 -4.609375 17.453125 -5.515625 L 19.15625 -5.515625 C 18.894531 -4.179688 18.367188 -3.070312 17.578125 -2.1875 C 16.796875 -1.3125 15.851562 -0.660156 14.75 -0.234375 C 13.644531 0.191406 12.472656 0.40625 11.234375 0.40625 C 9.441406 0.40625 7.863281 0.0195312 6.5 -0.75 C 5.132812 -1.519531 4.078125 -2.691406 3.328125 -4.265625 C 2.578125 -5.847656 2.203125 -7.851562 2.203125 -10.28125 C 2.203125 -12.4375 2.523438 -14.320312 3.171875 -15.9375 C 3.828125 -17.5625 4.828125 -18.820312 6.171875 -19.71875 C 7.515625 -20.625 9.203125 -21.078125 11.234375 -21.078125 Z M 11.234375 -21.078125 "/></g></g></g></svg>