<svg aria-hidden="true" focusable="false" role="presentation" xmlns="http://www.w3.org/2000/svg" width="21.794" height="23.66" viewBox="0 0 21.794 25.434"><g id="icon-bag" transform="translate(0 0)"><path id="Trazado_2663" data-name="Trazado 2663" d="M25.782,28.059H5.762a.887.887,0,0,1-.887-.887V8.972a.887.887,0,0,1,.887-.887H9.505a7.652,7.652,0,0,1,.7-2.24,5.773,5.773,0,0,1,5.571-3.22,5.773,5.773,0,0,1,5.571,3.22,7.652,7.652,0,0,1,.7,2.24h3.743a.887.887,0,0,1,.887.887v18.2A.887.887,0,0,1,25.782,28.059ZM6.649,26.285H24.895V9.859H6.649Zm4.656-18.2h8.932a5.7,5.7,0,0,0-.507-1.495A4.084,4.084,0,0,0,15.772,4.4a4.081,4.081,0,0,0-3.984,2.24A5.731,5.731,0,0,0,11.306,8.085Z" transform="translate(-4.875 -2.625)" fill="#695343"></path></g></svg>
