<svg xmlns="http://www.w3.org/2000/svg" width="16.9" height="23.66" viewBox="0 0 16.9 23.66">
    <g id="user" transform="translate(-0.001)">
        <path id="Trazado_22" data-name="Trazado 22" d="M16.04,3.94a4.225,4.225,0,1,1-4.225,4.225A4.225,4.225,0,0,1,16.04,3.94m0-1.69a5.915,5.915,0,1,0,5.915,5.915A5.915,5.915,0,0,0,16.04,2.25Z" transform="translate(-7.589 -2.25)" fill="#695343"></path>
        <path id="Trazado_23" data-name="Trazado 23" d="M23.65,30.39H21.96V26.165a4.225,4.225,0,0,0-4.225-4.225h-5.07A4.225,4.225,0,0,0,8.44,26.165V30.39H6.75V26.165a5.915,5.915,0,0,1,5.915-5.915h5.07a5.915,5.915,0,0,1,5.915,5.915Z" transform="translate(-6.749 -6.73)" fill="#695343"></path>
    </g>
</svg>
